Coordinates
version=1
nRows=12
nColumns=24
inDegrees=yes

Units are S.I. units (second, meters, Newtons, ...)
Angles are in degrees.

endheader
time	pelvis_tilt	pelvis_list	pelvis_rotation	pelvis_tx	pelvis_ty	pelvis_tz	hip_flexion_r	hip_adduction_r	hip_rotation_r	knee_angle_r	ankle_angle_r	subtalar_angle_r	mtp_angle_r	hip_flexion_l	hip_adduction_l	hip_rotation_l	knee_angle_l	ankle_angle_l	subtalar_angle_l	mtp_angle_l	lumbar_extension	lumbar_bending	lumbar_rotation
      0.69983333	     -2.80473649	     -0.00096955	      1.27788611	     -0.41601570	      1.00332543	      0.28520742	     11.77224875	      3.76500852	      2.20357077	    -23.49534511	     14.50699592	     -6.74500304	      0.25664048	     15.65629963	     -1.83976107	     -1.96251503	    -66.77636609	     -8.83358956	      0.34089538	      8.67908379	    -11.68614583	      6.62300255	     -0.86889286
      0.70400000	     -2.77766598	      0.10957739	      1.23595166	     -0.41115545	      1.00428452	      0.28530220	     11.26854996	      3.66544862	      2.25839900	    -23.12592586	     14.40564383	     -6.82308877	      0.24677379	     16.04329836	     -1.74100057	     -1.98080283	    -66.56485651	     -8.03150574	     -0.06862462	      8.61830425	    -11.76041165	      6.41658319	     -0.58514736
      0.70816667	     -2.79535212	      0.22225017	      1.18775201	     -0.40630315	      1.00516127	      0.28536994	     10.82903874	      3.55470286	      2.28886544	    -22.78776193	     14.31770810	     -6.82698336	      0.24308388	     16.47136516	     -1.63693720	     -2.01052649	    -66.30331881	     -7.20786131	     -0.47763297	      8.60521420	    -11.75380859	      6.25191836	     -0.46672209
      0.71233333	     -2.73561053	      0.31055943	      1.12328357	     -0.40142712	      1.00618759	      0.28551650	     10.26695799	      3.48826811	      2.40096542	    -22.35931285	     14.14296333	     -6.98902296	      0.23945391	     16.79478850	     -1.57630614	     -2.05893463	    -65.96601482	     -6.39003354	     -0.84232922	      8.52147862	    -11.89295172	      6.02659985	      0.01497583
      0.71650000	     -2.72286416	      0.43967325	      1.05277477	     -0.39656104	      1.00714493	      0.28561075	      9.78241120	      3.36374738	      2.47519692	    -21.98943585	     14.00103574	     -7.05522697	      0.24432466	     17.15397988	     -1.45948217	     -2.11671816	    -65.56217765	     -5.57355419	     -1.22589116	      8.42752574	    -11.94690743	      5.79785182	      0.31275196
      0.72066667	     -2.74906023	      0.55345477	      0.98336380	     -0.39171005	      1.00802958	      0.28566956	      9.35536188	      3.24534515	      2.51504968	    -21.64770979	     13.85922339	     -7.03863412	      0.24552599	     17.55119301	     -1.35772621	     -2.17807956	    -65.11604195	     -4.74022052	     -1.60576528	      8.39860690	    -11.93989638	      5.62983349	      0.43256302
      0.72483333	     -2.66667845	      0.66089798	      0.90243395	     -0.38681800	      1.00910760	      0.28578004	      8.76631790	      3.14712633	      2.63053182	    -21.20719820	     13.65799336	     -7.16510532	      0.25875203	     17.80283776	     -1.27156960	     -2.24742165	    -64.58286590	     -3.94603375	     -1.92791101	      8.27565626	    -12.09747376	      5.39770536	      0.88028683
      0.72900000	     -2.64545941	      0.78524138	      0.81862530	     -0.38193750	      1.01006603	      0.28584540	      8.27431127	      3.01883123	      2.71127219	    -20.83387642	     13.47535131	     -7.21516954	      0.28061766	     18.11033775	     -1.15956843	     -2.32304746	    -63.99836699	     -3.15580184	     -2.26567656	      8.13546702	    -12.15799058	      5.18555586	      1.17872206
      0.73316667	     -2.60363306	      0.90335419	      0.73470551	     -0.37704253	      1.01106464	      0.28590244	      7.75440201	      2.89300534	      2.78445917	    -20.44564138	     13.27991108	     -7.24580177	      0.30739896	     18.37947830	     -1.05553452	     -2.40159991	    -63.35085815	     -2.39102112	     -2.58935294	      7.98567624	    -12.23981043	      4.98580579	      1.44439032
      0.73733333	     -2.61815765	      1.02520910	      0.65042551	     -0.37218634	      1.01193459	      0.28592156	      7.32461584	      2.75404985	      2.82604191	    -20.11380503	     13.08861754	     -7.20679880	      0.31985880	     18.70722858	     -0.94159489	     -2.48309365	    -62.66887355	     -1.62204145	     -2.92866397	      7.91663469	    -12.25562669	      4.78909830	      1.57621671
      0.74150000	     -2.57309595	      1.10754223	      0.56329024	     -0.36726737	      1.01292380	      0.28600013	      6.77530804	      2.67315226	      2.96240398	    -19.66163729	     12.81025648	     -7.38478199	      0.50972821	     18.94619880	     -0.87999132	     -2.55596749	    -61.91679895	     -0.88905983	     -3.14601458	      7.09439287	    -12.34644923	      4.57797088	      2.13248217
      0.74566667	     -2.50127513	      1.25704884	      0.47829574	     -0.36235281	      1.01393739	      0.28597023	      6.23762031	      2.49391259	      2.99506159	    -19.30190224	     12.65189838	     -7.29939666	      0.54923349	     19.12884853	     -0.72173280	     -2.62914188	    -61.07304945	     -0.26525423	     -3.51594942	      6.93776279	    -12.45692877	      4.37018682	      2.22177068
